<svg width="32" height="32" viewBox="0 0 32 32" fill="none" xmlns="http://www.w3.org/2000/svg">
<g clip-path="url(#clip0_4022_141)">
<rect width="32" height="32" rx="16" fill="white"/>
<g filter="url(#filter0_d_4022_141)">
<path d="M16 0C7.168 0 0 7.168 0 16C0 24.832 7.168 32 16 32C24.832 32 32 24.832 32 16C32 7.168 24.832 0 16 0ZM23.424 10.88C23.184 13.408 22.144 19.552 21.616 22.384C21.392 23.584 20.944 23.984 20.528 24.032C19.6 24.112 18.896 23.424 18 22.832C16.592 21.904 15.792 21.328 14.432 20.432C12.848 19.392 13.872 18.816 14.784 17.888C15.024 17.648 19.12 13.92 19.2 13.584C19.2111 13.5331 19.2096 13.4803 19.1957 13.4301C19.1818 13.3799 19.1558 13.3339 19.12 13.296C19.024 13.216 18.896 13.248 18.784 13.264C18.64 13.296 16.4 14.784 12.032 17.728C11.392 18.16 10.816 18.384 10.304 18.368C9.728 18.352 8.64 18.048 7.824 17.776C6.816 17.456 6.032 17.28 6.096 16.72C6.128 16.432 6.528 16.144 7.28 15.84C11.952 13.808 15.056 12.464 16.608 11.824C21.056 9.968 21.968 9.648 22.576 9.648C22.704 9.648 23.008 9.68 23.2 9.84C23.36 9.968 23.408 10.144 23.424 10.272C23.408 10.368 23.44 10.656 23.424 10.88Z" fill="#2AA2DE"/>
<path d="M23.9218 10.9273L23.9219 10.9273L23.9227 10.9156C23.9329 10.7727 23.9275 10.6183 23.9237 10.5102L23.9231 10.4933C23.9212 10.4423 23.9198 10.4031 23.9195 10.3703C23.9193 10.3545 23.9195 10.3448 23.9196 10.3399L23.9292 10.2823L23.9201 10.21C23.8969 10.0244 23.8194 9.6975 23.5163 9.45271C23.3395 9.30679 23.1352 9.2351 22.9813 9.19796C22.822 9.1595 22.6741 9.148 22.576 9.148C22.1774 9.148 21.7258 9.2564 20.8615 9.56998C19.9885 9.88667 18.6377 10.4353 16.4165 11.3621C14.8593 12.0043 11.752 13.3497 7.08647 15.3789C6.6975 15.5365 6.36722 15.7022 6.12126 15.8836C5.88841 16.0553 5.63892 16.3089 5.59914 16.664C5.56792 16.939 5.64546 17.187 5.80691 17.3887C5.95377 17.5722 6.15272 17.6961 6.33783 17.7869C6.62564 17.9281 7.01042 18.047 7.39348 18.1655C7.48598 18.1941 7.57838 18.2226 7.6693 18.2515C8.08542 18.3901 8.57243 18.5375 9.03222 18.6529C9.48238 18.766 9.94302 18.858 10.2892 18.8678C10.9537 18.8883 11.6353 18.599 12.3117 18.1424C14.4955 16.6706 16.1459 15.5637 17.268 14.8209C17.3329 14.778 17.396 14.7362 17.4574 14.6957C17.2189 14.9253 16.9649 15.1668 16.7088 15.4083C16.1025 15.9805 15.4765 16.5608 15.0326 16.9724C14.7099 17.2716 14.4833 17.4816 14.4304 17.5344L14.4274 17.5375C14.32 17.6468 14.2099 17.752 14.0977 17.8586L14.0704 17.8845C13.9688 17.981 13.8641 18.0804 13.7668 18.1783C13.5628 18.3836 13.3405 18.6305 13.2145 18.9162C13.0734 19.2363 13.0575 19.5955 13.2476 19.9583C13.4186 20.2847 13.7354 20.5727 14.1573 20.8498C14.8299 21.2929 15.3647 21.6573 15.9076 22.0272L15.9165 22.0332C16.4624 22.4052 17.0171 22.783 17.7244 23.2492C17.896 23.3626 18.0591 23.4788 18.2261 23.5978C18.2681 23.6278 18.3104 23.658 18.3532 23.6883C18.5607 23.8355 18.7772 23.9857 18.9998 24.1157C19.4481 24.3776 19.9622 24.5826 20.5709 24.5302L20.5781 24.5295L20.5853 24.5287C21.3465 24.4409 21.8732 23.731 22.1075 22.4757L22.1075 22.4756C22.6352 19.6455 23.6794 13.4806 23.9218 10.9273ZM18.9794 13.7225C18.9792 13.7227 18.9761 13.7244 18.9704 13.7268C18.9768 13.7236 18.9796 13.7223 18.9794 13.7225ZM0.5 16C0.5 7.44414 7.44414 0.5 16 0.5C24.5559 0.5 31.5 7.44414 31.5 16C31.5 24.5559 24.5559 31.5 16 31.5C7.44414 31.5 0.5 24.5559 0.5 16Z" stroke="black"/>
</g>
</g>
<defs>
<filter id="filter0_d_4022_141" x="-4" y="0" width="40" height="40" filterUnits="userSpaceOnUse" color-interpolation-filters="sRGB">
<feFlood flood-opacity="0" result="BackgroundImageFix"/>
<feColorMatrix in="SourceAlpha" type="matrix" values="0 0 0 0 0 0 0 0 0 0 0 0 0 0 0 0 0 0 127 0" result="hardAlpha"/>
<feOffset dy="4"/>
<feGaussianBlur stdDeviation="2"/>
<feComposite in2="hardAlpha" operator="out"/>
<feColorMatrix type="matrix" values="0 0 0 0 0 0 0 0 0 0 0 0 0 0 0 0 0 0 0.25 0"/>
<feBlend mode="normal" in2="BackgroundImageFix" result="effect1_dropShadow_4022_141"/>
<feBlend mode="normal" in="SourceGraphic" in2="effect1_dropShadow_4022_141" result="shape"/>
</filter>
<clipPath id="clip0_4022_141">
<rect width="32" height="32" rx="16" fill="white"/>
</clipPath>
</defs>
</svg>
