<svg width="60" height="60" viewBox="0 0 60 60" fill="none" xmlns="http://www.w3.org/2000/svg">
<g clip-path="url(#clip0_4044_211)">
<path d="M31.4541 31.7002C35.5801 31.7002 38.9248 28.3554 38.9248 24.2295C38.9248 20.1035 35.5801 16.7588 31.4541 16.7588C27.3281 16.7588 23.9834 20.1035 23.9834 24.2295C23.9834 28.3554 27.3281 31.7002 31.4541 31.7002Z" fill="white"/>
<path d="M54.3493 31.5801L51.4107 29.6504L44.9011 39.5626L34.2022 35.9727C33.3412 35.6717 32.4164 35.5086 31.4541 35.5086C28.8629 35.5086 26.5435 36.6952 25.0109 38.5536L25.0086 38.5516L17.6931 47.0445L9.89067 41.0291L7.74426 43.8134L18.1838 51.8619L23.1046 46.1491V60.0001H39.8038V43.8583C39.8038 43.0176 39.6777 42.2061 39.4455 41.4403L46.3524 43.7578L54.3493 31.5801Z" fill="white"/>
<path d="M41.7135 7.42892C41.7135 7.2447 41.7262 7.06049 41.7514 6.88084C42.0245 4.92299 43.7282 3.47244 45.7083 3.51638C47.7482 3.55752 49.4289 5.18361 49.5345 7.21834C49.5907 8.30478 49.2108 9.33592 48.4643 10.1221C47.7174 10.9089 46.7096 11.3422 45.6266 11.3422H43.8688V16.0648H47.3844V14.6446C48.7587 14.3077 50.0276 13.5817 51.014 12.5428C52.4308 11.0505 53.1522 9.09474 53.0453 7.03611C52.8447 3.16963 49.6531 0.0796266 45.7791 0.00146251C42.0151 -0.0726 38.7886 2.67439 38.2695 6.39439C38.222 6.73424 38.1979 7.0824 38.1979 7.42892H41.7135Z" fill="white"/>
<path d="M43.8689 19.5808H47.3845V23.0964H43.8689V19.5808Z" fill="white"/>
<path d="M16.9932 28.6808C16.9932 28.8645 16.9805 29.049 16.9553 29.2289C16.6822 31.1868 14.9863 32.6343 12.9984 32.5934C10.9584 32.5522 9.27766 30.9261 9.17208 28.8914C9.11571 27.805 9.49575 26.7738 10.2422 25.9876C10.9892 25.2008 11.997 24.7676 13.0799 24.7676H14.8377V20.0449H11.3221V21.4651C9.94786 21.802 8.67895 22.5281 7.69259 23.5671C6.27579 25.0593 5.55438 27.015 5.66126 29.0736C5.86188 32.9401 9.0536 36.0301 12.9276 36.1083C16.6243 36.1083 19.925 33.3853 20.4373 29.7146C20.4848 29.3742 20.5088 29.0264 20.5088 28.6809L16.9932 28.6808Z" fill="white"/>
<path d="M11.322 13.0134H14.8376V16.5291H11.322V13.0134Z" fill="white"/>
</g>
<defs>
<clipPath id="clip0_4044_211">
<rect width="60" height="60" fill="white"/>
</clipPath>
</defs>
</svg>
