<svg width="80" height="80" viewBox="0 0 80 80" fill="none" xmlns="http://www.w3.org/2000/svg">
<g clip-path="url(#clip0_73_763)">
<path d="M17.1377 33.7432L9.4632 54.2138V54.2154C11.3412 61.718 15.4691 68.3504 21.3125 73.3533L30.9416 69.7425C20.7139 60.582 15.6658 47.1078 17.1377 33.7432Z" fill="url(#paint0_linear_73_763)"/>
<path d="M6.86491 61.1431L0.982454 76.8281C0.279372 78.7014 2.11207 80.5544 3.99946 79.8451L16.4096 75.1922C12.2471 71.1522 9.01806 66.3374 6.86491 61.1431Z" fill="url(#paint1_linear_73_763)"/>
<path d="M33.5899 31.8338L24.842 23.0859C17.7493 39.0853 22.5982 57.3725 35.9804 67.8535L45.3173 64.3522C37.1172 55.8839 32.682 44.0639 33.5899 31.8338Z" fill="url(#paint2_linear_73_763)"/>
<path d="M38.1661 36.4102C38.5255 46.3549 42.8565 55.7527 50.1842 62.5258H50.1857L57.0291 59.9603C58.6274 59.3603 59.0649 57.3089 57.8634 56.1074L38.1661 36.4102Z" fill="url(#paint3_linear_73_763)"/>
<path d="M55.2835 43.7733C56.1988 44.6886 57.6826 44.6886 58.5979 43.7733C67.4148 34.9564 76.0001 37.6823 76.0859 37.7107C77.3138 38.1199 78.641 37.4564 79.0504 36.2285C79.4599 35.0009 78.796 33.6733 77.5681 33.264C77.106 33.1101 66.1263 29.6162 55.2837 40.459C54.3683 41.3741 54.3681 42.8582 55.2835 43.7733Z" fill="url(#paint4_linear_73_763)"/>
<path d="M40.3692 25.544C51.2122 14.7025 47.7171 3.7219 47.564 3.25943C47.1547 2.03138 45.8266 1.36892 44.5986 1.77827C43.3721 2.18762 42.7081 3.5141 43.1174 4.74215C43.1455 4.82809 45.8719 13.4135 37.0537 22.2302C36.1443 23.1396 36.135 24.6225 37.0537 25.544C37.9738 26.464 39.4564 26.4568 40.3692 25.544Z" fill="url(#paint5_linear_73_763)"/>
<path d="M45.3404 30.5159C44.4251 31.4311 44.4251 32.915 45.3404 33.8302C46.2472 34.7372 47.7207 34.7491 48.6408 33.8441C49.8515 33.2409 53.6094 35.5036 55.6979 33.4159C57.7638 31.3497 55.5688 27.6682 56.1171 26.378C57.409 25.8284 61.0891 28.0245 63.1551 25.9587C65.2215 23.8925 63.0263 20.211 63.5746 18.9207C64.8684 18.3708 68.5465 20.5673 70.6124 18.5013C72.6789 16.4352 70.4837 12.7537 71.0319 11.4633C72.3181 10.9163 76.0054 13.1077 78.0701 11.0438C80.1576 8.95594 77.8992 5.19133 78.4981 3.98687C79.3996 3.07067 79.3947 1.59717 78.4841 0.686443C77.569 -0.228814 76.0851 -0.228814 75.1698 0.686443C73.3226 2.53367 73.684 5.14149 74.0319 7.0059C72.1675 6.65796 69.5598 6.29657 67.7126 8.14365C65.8654 9.99088 66.2268 12.5987 66.5747 14.4631C64.7103 14.1153 62.1023 13.7536 60.2553 15.601C58.408 17.4482 58.7696 20.0561 59.1175 21.9205C57.2528 21.5725 54.6451 21.211 52.798 23.0582C50.9508 24.9054 51.3122 27.5133 51.6601 29.3777C49.7956 29.03 47.1874 28.6687 45.3404 30.5159Z" fill="url(#paint6_linear_73_763)"/>
<path d="M58.5979 10.6297C59.5131 9.71442 59.5131 8.23061 58.5979 7.31535C57.6826 6.40009 56.1988 6.40009 55.2835 7.31535C54.3683 8.23061 54.3683 9.71442 55.2835 10.6297C56.1988 11.5449 57.6826 11.5449 58.5979 10.6297Z" fill="url(#paint7_linear_73_763)"/>
<path d="M73.5124 27.8879C74.8068 27.8879 75.856 26.8386 75.856 25.5443C75.856 24.25 74.8068 23.2007 73.5124 23.2007C72.2181 23.2007 71.1688 24.25 71.1688 25.5443C71.1688 26.8386 72.2181 27.8879 73.5124 27.8879Z" fill="url(#paint8_linear_73_763)"/>
<path d="M68.5409 47.0878C67.6256 48.0031 67.6256 49.4869 68.5409 50.4021C69.4561 51.3174 70.9399 51.3174 71.8552 50.4021C72.7705 49.4869 72.7705 48.0031 71.8552 47.0878C70.9401 46.1726 69.4561 46.1726 68.5409 47.0878Z" fill="url(#paint9_linear_73_763)"/>
<path d="M35.3973 13.9441C36.3125 13.0289 36.3125 11.5451 35.3973 10.6298C34.482 9.71455 32.9982 9.71455 32.0829 10.6298C31.1677 11.5449 31.1677 13.0289 32.0829 13.9441C32.9982 14.8594 34.4822 14.8594 35.3973 13.9441Z" fill="url(#paint10_linear_73_763)"/>
</g>
<defs>
<linearGradient id="paint0_linear_73_763" x1="20.2024" y1="33.7432" x2="20.2024" y2="73.3533" gradientUnits="userSpaceOnUse">
<stop stop-color="#4B4C49"/>
<stop offset="1" stop-color="#21221E"/>
</linearGradient>
<linearGradient id="paint1_linear_73_763" x1="8.61925" y1="61.1431" x2="8.61925" y2="79.9999" gradientUnits="userSpaceOnUse">
<stop stop-color="#4B4C49"/>
<stop offset="1" stop-color="#21221E"/>
</linearGradient>
<linearGradient id="paint2_linear_73_763" x1="33.4521" y1="23.0859" x2="33.4521" y2="67.8535" gradientUnits="userSpaceOnUse">
<stop stop-color="#4B4C49"/>
<stop offset="1" stop-color="#21221E"/>
</linearGradient>
<linearGradient id="paint3_linear_73_763" x1="48.3579" y1="36.4102" x2="48.3579" y2="62.5258" gradientUnits="userSpaceOnUse">
<stop stop-color="#4B4C49"/>
<stop offset="1" stop-color="#21221E"/>
</linearGradient>
<linearGradient id="paint4_linear_73_763" x1="66.8842" y1="32.6074" x2="66.8842" y2="44.4598" gradientUnits="userSpaceOnUse">
<stop stop-color="#4B4C49"/>
<stop offset="1" stop-color="#21221E"/>
</linearGradient>
<linearGradient id="paint5_linear_73_763" x1="42.2943" y1="1.65723" x2="42.2943" y2="26.2313" gradientUnits="userSpaceOnUse">
<stop stop-color="#4B4C49"/>
<stop offset="1" stop-color="#21221E"/>
</linearGradient>
<linearGradient id="paint6_linear_73_763" x1="61.9123" y1="0" x2="61.9123" y2="34.5167" gradientUnits="userSpaceOnUse">
<stop stop-color="#4B4C49"/>
<stop offset="1" stop-color="#21221E"/>
</linearGradient>
<linearGradient id="paint7_linear_73_763" x1="56.9407" y1="6.62891" x2="56.9407" y2="11.3161" gradientUnits="userSpaceOnUse">
<stop stop-color="#4B4C49"/>
<stop offset="1" stop-color="#21221E"/>
</linearGradient>
<linearGradient id="paint8_linear_73_763" x1="73.5124" y1="23.2007" x2="73.5124" y2="27.8879" gradientUnits="userSpaceOnUse">
<stop stop-color="#4B4C49"/>
<stop offset="1" stop-color="#21221E"/>
</linearGradient>
<linearGradient id="paint9_linear_73_763" x1="70.198" y1="46.4014" x2="70.198" y2="51.0886" gradientUnits="userSpaceOnUse">
<stop stop-color="#4B4C49"/>
<stop offset="1" stop-color="#21221E"/>
</linearGradient>
<linearGradient id="paint10_linear_73_763" x1="33.7401" y1="9.94336" x2="33.7401" y2="14.6306" gradientUnits="userSpaceOnUse">
<stop stop-color="#4B4C49"/>
<stop offset="1" stop-color="#21221E"/>
</linearGradient>
<clipPath id="clip0_73_763">
<rect width="80" height="80" fill="white"/>
</clipPath>
</defs>
</svg>
