<svg width="60" height="60" viewBox="0 0 60 60" fill="none" xmlns="http://www.w3.org/2000/svg">
<path d="M45.5086 49.8306H41.6953H35.9743L30.2647 56.6745L24.3698 49.8306H18.3294H14.0302H10.7084V60.0001H48.751L48.456 49.8306H45.5086Z" fill="white"/>
<path d="M30 47.5011C38.5493 47.5011 45.4802 40.5702 45.4802 32.0209C45.4802 30.0944 45.1153 28.2624 44.4725 26.559C44.8015 26.6857 44.9981 26.767 44.9981 26.767V18.3916C44.9981 18.3916 37.4395 14.3911 29.93 14.3911C22.4206 14.3911 15.0964 18.5051 15.0964 18.5051V26.7689C15.0964 26.7689 15.2495 26.7065 15.5161 26.6025C14.8847 28.2908 14.5236 30.1077 14.5236 32.019C14.5217 40.5702 21.4488 47.5011 30 47.5011Z" fill="white"/>
<path d="M53.3924 16.5389L56.3644 14.9395L53.3924 13.2909V12.5139C53.3924 12.5139 54.2261 8.26758 49.4713 10.4871C49.2293 10.6195 49.1007 10.7537 49.0459 10.8823L29.4234 0L3.63562 14.758L13.3722 19.182V17.7451C13.3722 17.7451 21.5434 13.1567 29.9206 13.1567C38.2941 13.1567 46.7223 17.6147 46.7223 17.6147V20.1235L52.0954 17.2366C52.0954 20.5829 52.0954 27.7351 52.0954 28.928H50.3088V33.0817L52.6872 31.4369L55.3264 33.0817V28.928H53.3924V16.5389ZM52.0954 11.7917C52.0954 11.8919 52.0954 12.166 52.0954 12.5725L50.5262 11.7047C51.0991 11.3209 52.0954 10.801 52.0954 11.7917ZM51.5642 16.3764C50.8703 16.3764 50.3088 15.8148 50.3088 15.121C50.3088 14.4253 50.8703 13.8619 51.5642 13.8619C52.258 13.8619 52.8233 14.4253 52.8233 15.121C52.8233 15.8148 52.2599 16.3764 51.5642 16.3764Z" fill="white"/>
</svg>
