<svg width="56" height="61" viewBox="0 0 56 61" fill="none" xmlns="http://www.w3.org/2000/svg">
<path d="M56 11C54.997 15.0327 53.9383 19.3837 52.8239 24.0531C51.7095 28.7225 50.7065 33.2857 49.8149 37.7429C48.9234 42.2 48.199 46.2857 47.6418 50H31.7612L30.591 48.249C31.594 44.5347 32.8756 40.5551 34.4358 36.3102C35.996 31.9592 37.7234 27.6082 39.6179 23.2571C41.5124 18.9061 43.3512 14.8204 45.1343 11H56ZM25.0746 11C24.0716 15.0327 23.0129 19.3837 21.8985 24.0531C20.7841 28.7225 19.7811 33.2857 18.8896 37.7429C17.998 42.2 17.2736 46.2857 16.7164 50H1.00299L0 48.249C1.00299 44.5347 2.28458 40.5551 3.84478 36.3102C5.40497 31.9592 7.07662 27.6082 8.8597 23.2571C10.7542 18.9061 12.593 14.8204 14.3761 11H25.0746Z" fill="#BFF764"/>
</svg>
