<svg width="92" height="60" viewBox="0 0 92 60" fill="none" xmlns="http://www.w3.org/2000/svg">
<path d="M75.276 32.1859C80.372 32.1859 84.5031 27.6956 84.5031 22.1564C84.5031 16.6173 80.372 12.127 75.276 12.127C70.18 12.127 66.0488 16.6173 66.0488 22.1564C66.0488 27.6956 70.18 32.1859 75.276 32.1859Z" fill="#BFF764"/>
<path d="M16.7241 32.1859C21.8201 32.1859 25.9512 27.6956 25.9512 22.1564C25.9512 16.6173 21.8201 12.127 16.7241 12.127C11.6281 12.127 7.49695 16.6173 7.49695 22.1564C7.49695 27.6956 11.6281 32.1859 16.7241 32.1859Z" fill="#BFF764"/>
<path d="M75.2759 36.0024C71.1128 36.0024 67.3081 37.6587 64.3822 40.3953C67.7013 44.3495 69.9982 49.072 71.13 54.1809H92C92 44.1414 84.5124 36.0024 75.2759 36.0024Z" fill="#BFF764"/>
<path d="M45.9999 34.686C33.444 34.686 23.2655 45.7496 23.2655 59.3973H68.7343C68.7343 45.7496 58.5558 34.686 45.9999 34.686Z" fill="#BFF764"/>
<path d="M16.7241 36.0024C7.48761 36.0024 0 44.1411 0 54.1809H20.8701C22.0017 49.072 24.2987 44.3495 27.6178 40.3953C24.692 37.6589 20.8872 36.0024 16.7241 36.0024Z" fill="#BFF764"/>
<path d="M45.9999 30.8697C52.9273 30.8697 58.543 24.7656 58.543 17.2359C58.543 9.70612 52.9273 3.60205 45.9999 3.60205C39.0725 3.60205 33.4568 9.70612 33.4568 17.2359C33.4568 24.7656 39.0725 30.8697 45.9999 30.8697Z" fill="#BFF764"/>
</svg>
